PathFileType	4	(x/y/z)	S02_P20_T16
DataRate	CameraRate	NumFrames	NumMarkers	Units	OrigDataRate	OrigDataStartFrame	OrigNumFrames
240	240	9	51	mm	240	214	342
Frame#	Time	Sternum			R.Acromium			L.Acromium			Top.Head			R.ASIS			L.ASIS			R.PSIS			L.PSIS			R.Great.Tro			L.Great.Tro			R.Iliac.Crest			L.Iliac.Crest			V.Sacral			R.Thigh.Upper.Post			R.Thigh.Lower.Ant			R.Thigh.Lower.Post			R.Thigh.Upper.Ant			R.Knee.Lat			R.Knee.Med			R.Shank.Upper.Post			R.Shank.Lower.Ant			R.Shank.Lower.Post			R.Shank.Upper.Ant			R.Ankle.Lat			R.Ankle.Med			R.Heel.Upper			R.Heel.Med			R.Heel.Lat			R.Toe.Lat			R.Toe.Med			R.Toe.Tip			L.Thigh.Upper.Post			L.Thigh.Lower.Ant			L.Thigh.Lower.Post			L.Thigh.Upper.Ant			L.Knee.Lat			L.Knee.Med			L.Shank.Upper.Post			L.Shank.Lower.Ant			L.Shank.Lower.Post			L.Shank.Upper.Ant			L.Ankle.Lat			L.Ankle.Med			L.Heel.Upper			L.Heel.Med			L.Heel.Lat			L.Toe.Lat			L.Toe.Med			L.Toe.Tip			Cervical.Spine			Back			
		X1	Y1	Z1	X2	Y2	Z2	X3	Y3	Z3	X4	Y4	Z4	X5	Y5	Z5	X6	Y6	Z6	X7	Y7	Z7	X8	Y8	Z8	X9	Y9	Z9	X10	Y10	Z10	X11	Y11	Z11	X12	Y12	Z12	X13	Y13	Z13	X14	Y14	Z14	X15	Y15	Z15	X16	Y16	Z16	X17	Y17	Z17	X18	Y18	Z18	X19	Y19	Z19	X20	Y20	Z20	X21	Y21	Z21	X22	Y22	Z22	X23	Y23	Z23	X24	Y24	Z24	X25	Y25	Z25	X26	Y26	Z26	X27	Y27	Z27	X28	Y28	Z28	X29	Y29	Z29	X30	Y30	Z30	X31	Y31	Z31	X32	Y32	Z32	X33	Y33	Z33	X34	Y34	Z34	X35	Y35	Z35	X36	Y36	Z36	X37	Y37	Z37	X38	Y38	Z38	X39	Y39	Z39	X40	Y40	Z40	X41	Y41	Z41	X42	Y42	Z42	X43	Y43	Z43	X44	Y44	Z44	X45	Y45	Z45	X46	Y46	Z46	X47	Y47	Z47	X48	Y48	Z48	X49	Y49	Z49	X50	Y50	Z50	X51	Y51	Z51	

214	0.8875	-41.091	1076.1	315.34	-132.65	1315.1	464.92	-157.5	1324.2	173.99	-75.547	1599.9	318.45	-91.386	897.88	435.84	-68.824	898.04	225.13	-295.69	951.38	357.31	-294.98	954.7	283.18	-190.7	796.07	516.86	-177.53	812.08	126.1	-192.23	950.82	482.04	-187.45	950.91	146.72	-325.93	910.42	312.14	-241.83	596.33	491.88	-212.54	506.28	452.25	-282.78	517.8	469.86	-175.8	586.18	472.64	-294.15	438.27	452.41	-309.95	432.53	308.19	-449.67	277.18	433.6	-412.49	174.04	414.62	-472	207.2	422.8	-387.72	237.42	433.29	-495.68	111.74	407.41	-485.29	124.26	323.78	-558.26	108.86	351.65	-549.26	76.15	322.97	-561.42	76.21	386.04	-406.66	37.8	431.75	-370.82	31.76	325.56	-323.39	54.1	381.93	-109.95	582.1	150.84	-8.4334	541.7	165.19	-75.532	501.97	178.44	-52.207	622.49	138.38	7.3159	464.47	176.72	-4.3668	461.39	318.27	-22.819	277.86	181.29	71.647	217.91	192.23	-0.6524	208.34	198.09	42.156	287.02	176.46	66.207	104.86	206.52	83.095	108.13	287.74	22.076	57.698	244.79	37.917	38.129	279.94	34.382	29.652	218.62	194.86	63.736	182.96	212.87	90.886	288.1	264.52	120.37	238.36	-220.54	1380	329.53	-299.17	1128.5	341.89
215	0.89167	-35.036	1074.6	314.83	-126.9	1313.8	464.21	-151.44	1323	173.21	-69.995	1598.8	317.52	-85.489	896.39	435.86	-62.49	896.55	225.01	-289.68	950.09	356.77	-288.88	953.37	282.62	-184.92	794.82	516.67	-171.16	810.72	125.99	-186.48	949.42	481.85	-181.05	949.33	146.09	-319.82	909.08	311.55	-236.18	595.22	491.72	-206.81	505.07	452.28	-277.07	516.63	469.72	-170.13	584.99	472.62	-288.59	437.11	452.41	-304.09	431.23	308.2	-446.14	278.06	433.8	-410.57	174.35	414.98	-469.5	208.35	423.06	-384.89	237.44	433.51	-494.5	112.97	407.91	-483.92	125.64	324.31	-557.04	111.11	352.15	-548.44	78.45	323.29	-560.63	78.331	386.37	-406.5	37.716	431.84	-370.82	31.775	325.62	-323.4	53.921	381.9	-103.44	581.14	150.82	-1.9616	540.79	165.57	-69.098	500.98	178.45	-45.689	621.57	138.65	13.638	463.4	177.02	1.8262	460.43	318.3	-17.21	276.94	181.32	76.833	216.56	192.92	4.4959	207.31	198.24	47.804	285.78	177.03	70.803	103.98	206.98	87.164	106.84	288.35	26.023	57.646	244.8	41.39	37.616	279.95	38.21	29.645	218.54	199.12	62.202	183.94	216.75	88.588	289.38	268.92	117.78	240.07	-214.82	1378.9	328.73	-293.27	1127.2	341.18
216	0.89583	-28.969	1073.1	314.33	-121.16	1312.6	463.48	-145.36	1321.8	172.41	-64.449	1597.7	316.59	-79.551	894.97	435.84	-56.13	895.11	224.85	-283.65	948.82	356.25	-282.77	952.08	282.08	-179.06	793.59	516.47	-164.79	809.47	125.86	-180.69	948.06	481.66	-174.64	947.8	145.45	-313.67	907.75	310.98	-230.38	594.11	491.56	-200.87	503.88	452.34	-271.18	515.45	469.6	-164.3	583.84	472.63	-282.8	435.93	452.45	-297.97	429.87	308.26	-442.42	279.03	434.02	-408.52	174.75	415.41	-466.83	209.6	423.36	-381.9	237.52	433.79	-493.19	114.3	408.46	-482.33	127.12	324.91	-555.65	113.56	352.71	-547.49	80.97	323.65	-559.72	80.654	386.74	-406.32	37.646	431.95	-370.83	31.814	325.7	-323.4	53.734	381.87	-96.959	580.23	150.84	4.4818	539.92	165.92	-62.684	500.04	178.47	-39.211	620.7	138.91	19.935	462.36	177.29	8.1235	459.55	318.29	-11.82	276.11	181.39	81.708	215.16	193.65	9.3282	206.35	198.42	53.239	284.55	177.63	74.9	103.1	207.47	90.765	105.54	288.99	29.415	57.71	244.86	44.27	37.187	280.01	41.412	29.745	218.5	202.78	60.49	184.89	220.12	86.043	290.63	272.83	114.85	241.72	-209.08	1377.8	327.9	-287.34	1126	340.44
217	0.9	-22.892	1071.8	313.82	-115.43	1311.4	462.75	-139.24	1320.7	171.59	-58.908	1596.8	315.65	-73.573	893.62	435.78	-49.748	893.75	224.66	-277.6	947.57	355.75	-276.65	950.83	281.56	-173.13	792.37	516.25	-158.43	808.33	125.7	-174.85	946.77	481.46	-168.21	946.34	144.8	-307.48	906.44	310.43	-224.42	593.01	491.39	-194.72	502.7	452.44	-265.07	514.24	469.49	-158.3	582.73	472.66	-276.77	434.73	452.55	-291.58	428.45	308.37	-438.5	280.08	434.26	-406.33	175.25	415.92	-463.98	210.98	423.69	-378.74	237.67	434.15	-491.74	115.75	409.07	-480.52	128.72	325.58	-554.06	116.23	353.33	-546.38	83.723	324.06	-558.66	83.192	387.15	-406.11	37.597	432.07	-370.83	31.882	325.79	-323.4	53.537	381.85	-90.527	579.38	150.87	10.888	539.1	166.22	-56.301	499.16	178.51	-32.779	619.88	139.15	26.202	461.36	177.54	14.507	458.77	318.25	-6.6313	275.38	181.49	86.298	213.76	194.41	13.872	205.48	198.64	58.474	283.34	178.25	78.541	102.24	208	93.942	104.24	289.64	32.308	57.876	244.97	46.618	36.839	280.09	44.051	29.94	218.5	205.88	58.64	185.79	223.05	83.302	291.83	276.31	111.64	243.3	-203.33	1376.7	327.04	-281.41	1124.8	339.65
218	0.90417	-16.808	1070.5	313.32	-109.71	1310.2	462.01	-133.1	1319.6	170.74	-53.372	1595.9	314.72	-67.561	892.36	435.68	-43.349	892.46	224.43	-271.52	946.36	355.28	-270.53	949.65	281.06	-167.12	791.17	516.02	-152.07	807.31	125.52	-168.96	945.54	481.25	-161.79	944.95	144.14	-301.26	905.15	309.92	-218.31	591.91	491.23	-188.35	501.54	452.58	-258.76	513.02	469.4	-152.12	581.68	472.71	-270.5	433.51	452.7	-284.91	426.97	308.54	-434.36	281.22	434.53	-403.97	175.85	416.51	-460.94	212.48	424.08	-375.39	237.9	434.58	-490.12	117.31	409.75	-478.48	130.44	326.34	-552.25	119.11	354.02	-545.09	86.721	324.52	-557.43	85.961	387.61	-405.86	37.576	432.22	-370.83	31.986	325.9	-323.4	53.329	381.84	-84.15	578.59	150.91	17.247	538.33	166.47	-49.957	498.35	178.55	-26.402	619.13	139.36	32.433	460.41	177.76	20.955	458.08	318.17	-1.629	274.76	181.62	90.627	212.36	195.17	18.154	204.69	198.89	63.525	282.15	178.88	81.769	101.42	208.55	96.738	102.96	290.3	34.757	58.13	245.12	48.501	36.567	280.21	46.193	30.218	218.54	208.49	56.695	186.64	225.57	80.421	292.97	279.39	108.22	244.78	-197.57	1375.7	326.14	-275.46	1123.7	338.82
219	0.90833	-10.719	1069.3	312.83	-104	1309.2	461.27	-126.94	1318.5	169.87	-47.841	1595	313.79	-61.517	891.18	435.53	-36.939	891.26	224.15	-265.44	945.2	354.84	-264.42	948.53	280.6	-161.06	790	515.77	-145.71	806.42	125.29	-163.02	944.39	481.04	-155.37	943.66	143.48	-295.02	903.89	309.44	-212.03	590.83	491.07	-181.75	500.41	452.76	-252.22	511.78	469.33	-145.76	580.67	472.78	-263.97	432.29	452.91	-277.96	425.44	308.78	-429.99	282.46	434.83	-401.43	176.56	417.2	-457.68	214.1	424.51	-371.85	238.21	435.1	-488.32	119.01	410.49	-476.18	132.29	327.17	-550.2	122.23	354.78	-543.6	89.975	325.03	-556.02	88.973	388.12	-405.58	37.591	432.4	-370.82	32.133	326.03	-323.37	53.105	381.83	-77.835	577.87	150.97	23.55	537.63	166.66	-43.664	497.6	178.6	-20.087	618.43	139.54	38.623	459.53	177.95	27.446	457.5	318.08	3.203	274.25	181.77	94.721	210.99	195.92	22.204	204.01	199.15	68.406	281.02	179.5	84.626	100.64	209.11	99.196	101.73	290.96	36.818	58.459	245.31	49.982	36.367	280.35	47.901	30.566	218.61	210.66	54.699	187.42	227.73	77.458	294.03	282.1	104.66	246.16	-191.79	1374.8	325.23	-269.51	1122.7	337.95
220	0.9125	-4.6292	1068.3	312.34	-98.307	1308.2	460.53	-120.76	1317.5	168.98	-42.313	1594.3	312.87	-55.447	890.09	435.33	-30.523	890.15	223.84	-259.35	944.08	354.43	-258.32	947.49	280.16	-154.93	788.86	515.5	-139.36	805.66	125.04	-157.03	943.31	480.82	-148.96	942.47	142.82	-288.75	902.68	308.99	-205.58	589.77	490.91	-174.92	499.32	452.98	-245.47	510.54	469.28	-139.22	579.72	472.89	-257.19	431.06	453.2	-270.72	423.86	309.09	-425.37	283.8	435.16	-398.69	177.39	417.99	-454.2	215.87	425.01	-368.08	238.61	435.7	-486.32	120.83	411.31	-473.61	134.28	328.09	-547.87	125.59	355.62	-541.89	93.495	325.59	-554.4	92.242	388.69	-405.24	37.653	432.6	-370.8	32.333	326.18	-323.33	52.865	381.85	-71.591	577.22	151.02	29.79	536.99	166.8	-37.43	496.94	178.65	-13.839	617.81	139.68	44.767	458.72	178.11	33.958	457.02	317.96	7.8797	273.85	181.94	98.607	209.66	196.66	26.048	203.43	199.43	73.13	279.95	180.11	87.154	99.908	209.67	101.36	100.55	291.6	38.539	58.846	245.53	51.123	36.234	280.5	49.236	30.971	218.7	212.44	52.694	188.13	229.57	74.467	295.02	284.48	101.03	247.42	-186	1373.9	324.28	-263.56	1121.7	337.05
221	0.91667	1.4595	1067.3	311.86	-92.622	1307.3	459.8	-114.56	1316.6	168.08	-36.788	1593.6	311.95	-49.358	889.1	435.08	-24.111	889.15	223.49	-253.25	943.02	354.06	-252.24	946.53	279.76	-148.73	787.74	515.22	-133.02	805.04	124.74	-150.99	942.32	480.6	-142.57	941.39	142.16	-282.48	901.51	308.57	-198.97	588.72	490.75	-167.86	498.26	453.26	-238.49	509.29	469.26	-132.5	578.84	473.02	-250.13	429.83	453.55	-263.2	422.24	309.48	-420.49	285.23	435.54	-395.73	178.34	418.88	-450.46	217.76	425.56	-364.08	239.1	436.39	-484.1	122.81	412.19	-470.77	136.4	329.1	-545.26	129.19	356.53	-539.94	97.288	326.23	-552.54	95.778	389.32	-404.85	37.773	432.83	-370.75	32.593	326.35	-323.26	52.605	381.87	-65.424	576.66	151.07	35.958	536.43	166.88	-31.264	496.36	178.7	-7.6655	617.26	139.76	50.859	458	178.24	40.466	456.64	317.83	12.415	273.58	182.11	102.3	208.4	197.37	29.708	202.98	199.71	77.71	278.95	180.69	89.388	99.241	210.22	103.25	99.445	292.22	39.969	59.278	245.77	51.981	36.165	280.67	50.257	31.419	218.81	213.88	50.716	188.76	231.14	71.502	295.92	286.57	97.39	248.56	-180.21	1373.2	323.32	-257.61	1120.9	336.12
222	0.92083	7.5428	1066.4	311.4	-86.949	1306.5	459.06	-108.35	1315.7	167.17	-31.262	1593	311.04	-43.257	888.2	434.78	-17.71	888.25	223.09	-247.16	942.02	353.72	-246.18	945.66	279.4	-142.48	786.67	514.92	-126.7	804.57	124.4	-144.91	941.43	480.37	-136.2	940.44	141.51	-276.2	900.41	308.19	-192.18	587.71	490.61	-160.56	497.24	453.6	-231.29	508.03	469.28	-125.6	578.04	473.19	-242.8	428.6	453.99	-255.37	420.57	309.95	-415.34	286.77	435.97	-392.52	179.41	419.87	-446.46	219.8	426.18	-359.83	239.68	437.17	-481.64	124.93	413.15	-467.63	138.66	330.2	-542.33	133.04	357.54	-537.73	101.36	326.93	-550.43	99.591	390.02	-404.39	37.963	433.09	-370.66	32.925	326.54	-323.14	52.322	381.92	-59.34	576.19	151.1	42.046	535.93	166.89	-25.175	495.87	178.75	-1.5706	616.78	139.8	56.896	457.37	178.33	46.947	456.38	317.69	16.819	273.42	182.29	105.83	207.22	198.03	33.205	202.65	199.97	82.156	278.04	181.23	91.363	98.642	210.75	104.92	98.426	292.8	41.146	59.741	246.02	52.607	36.152	280.84	51.015	31.896	218.94	215.03	48.801	189.32	232.48	68.61	296.73	288.39	93.805	249.58	-174.4	1372.5	322.33	-251.65	1120.1	335.17
